<svg xmlns="http://www.w3.org/2000/svg" viewBox="0 0 89.92 86.13"><title>rolodex</title><path d="M89.92,31.33a38.62,38.62,0,0,1-65.3,27.9l-0.4-.4,17.1-16.3,0.4,0.3a15.25,15.25,0,0,0,10.5,4.1A15.59,15.59,0,0,0,65,22.43l-0.3-.4,17.4-13.9,0.3,0.4A38.44,38.44,0,0,1,89.92,31.33Z"/><path d="M22.72,86.13c-11.3,0-20.6-7.4-22.4-18-1.5-8.2,2-19.8,16.7-25.2,21.7-7.9,33.9-13.6,34-13.7a4,4,0,0,1,1.5-.3,3.53,3.53,0,0,1,3.1,2,3.36,3.36,0,0,1,.1,2.6,2.85,2.85,0,0,1-1.8,1.9c-0.5.2-12.5,5.9-34.6,13.9-7,2.6-14,8.5-12.4,17.5,1.5,8.4,9.2,12.3,15.7,12.3h57.1a3.4,3.4,0,1,1,0,6.8h-57v0.2Z"/><path d="M12.22,31.33a0.79,0.79,0,0,1,.8-0.8h26.7a1.27,1.27,0,0,1,.1-0.6l-26.2-5.2a0.82,0.82,0,0,1,.4-1.6l26.2,5.2a12.66,12.66,0,0,1,12.2-9.5,11.77,11.77,0,0,1,6.2,1.7l14.9-20.2a0.93,0.93,0,0,1,1.2-.2,0.93,0.93,0,0,1,.2,1.2l-15.1,20c0.2,0.2.5,0.4,0.7,0.6l18.6-16.8a0.85,0.85,0,0,1,1.1,1.3l-18.5,16.7a12.54,12.54,0,0,1-9.5,20.8,12.46,12.46,0,0,1-7.6-2.6c6.4-2.7,9.8-4.3,10.1-4.4a5,5,0,0,0,2.4-6.7,5,5,0,0,0-6.7-2.4c-0.1,0-3.8,1.8-10.6,4.6v-0.2H13.12A0.84,0.84,0,0,1,12.22,31.33Z"/></svg>